<?xml version="1.0" encoding="UTF-8" standalone="no"?>
<svg width="229px" height="247px" viewBox="0 0 229 247" version="1.1" xmlns="http://www.w3.org/2000/svg" xmlns:xlink="http://www.w3.org/1999/xlink">
    <!-- Generator: Sketch 39.1 (31720) - http://www.bohemiancoding.com/sketch -->
    <title>Group 7</title>
    <desc>Created with Sketch.</desc>
    <defs></defs>
    <g id="Page-1" stroke="none" stroke-width="1" fill="none" fill-rule="evenodd">
        <g id="Artboard-Copy" transform="translate(-497.000000, -461.000000)" fill="#106F87">
            <g id="Group" transform="translate(497.000000, 461.000000)">
                <g id="Group-7">
                    <path d="M103.791501,3.14448874 C109.588332,-0.06161408 118.980869,-0.0649226953 124.783682,3.14448874 L218.079093,54.7441803 C223.875923,57.9502831 228.575183,65.9208425 228.575183,72.5566061 L228.575183,174.962114 C228.575183,181.593542 223.881906,189.565128 218.079093,192.774539 L124.783682,244.374231 C118.986851,247.580334 109.594314,247.583642 103.791501,244.374231 L10.4960906,192.774539 C4.69925982,189.568437 5.51150365e-14,181.597877 5.13289519e-14,174.962114 L-7.09927575e-15,72.5566061 C-1.08828867e-14,65.9251778 4.69327764,57.9535917 10.4960906,54.7441803 L103.791501,3.14448874 Z" id="Polygon-4"></path>
                </g>
            </g>
        </g>
    </g>
</svg>