<?xml version="1.0" encoding="utf-8"?>
<!-- Generator: Adobe Illustrator 16.0.0, SVG Export Plug-In . SVG Version: 6.00 Build 0)  -->
<!DOCTYPE svg PUBLIC "-//W3C//DTD SVG 1.1//EN" "http://www.w3.org/Graphics/SVG/1.1/DTD/svg11.dtd">
<svg version="1.1" id="Layer_1" xmlns="http://www.w3.org/2000/svg" xmlns:xlink="http://www.w3.org/1999/xlink" x="0px" y="0px"
	 width="308px" height="337px" viewBox="0 0 308 337" enable-background="new 0 0 308 337" xml:space="preserve">
<g>
	<path fill-rule="evenodd" clip-rule="evenodd" fill="#7F7F7F" d="M144.886,0.501c5.995,0,11.99,0,17.987,0
		c9.331,0.868,17.501,4.78,25.44,9.454c26.818,15.788,53.833,31.235,80.816,46.74c6.121,3.517,12.504,6.675,17.916,11.311
		c9.709,8.315,15.907,18.848,19.428,31.048c0.929,3.215,1.301,6.507,1.529,9.832c-0.004,39.907-0.004,79.805,0,119.697
		c-1.101,15.143-7.881,27.612-18.355,38.227c-5.067,5.139-11.444,8.532-17.646,12.092c-19.977,11.46-39.914,22.984-59.85,34.517
		c-10.291,5.952-20.557,11.948-30.905,17.799c-6.163,3.484-12.754,5.659-19.951,5.528c-0.333-0.006-0.662,0-0.92,0.256
		c-4.497,0-8.994,0-13.49,0c-6.754-0.195-13.063-2.099-19.02-5.159c-6.138-3.155-12.007-6.795-17.981-10.242
		c-23.256-13.42-46.528-26.81-69.744-40.294c-6.602-3.834-13.513-7.198-19.447-12.12c-6.583-5.459-11.45-12.226-15.159-19.857
		c-1.16-2.386-2.169-4.851-3.186-7.311C0.705,238.043,0.395,233.853,0,229.66c0-40.44,0-80.88,0-121.32
		c0.15-5.871,1.514-11.456,3.855-16.834C9.4,78.772,17.801,68.616,30.025,61.682c17.803-10.102,35.488-20.414,53.203-30.67
		c14.546-8.42,29.061-16.899,43.69-25.173C132.468,2.699,138.479,0.878,144.886,0.501z"/>
	<path fill-rule="evenodd" clip-rule="evenodd" fill="#19A2C4" d="M290.295,169.193c0,15.976,0.164,31.953-0.043,47.926
		c-0.254,19.657-8.896,34.952-25.716,44.97c-24.781,14.759-49.896,28.956-74.898,43.339c-4.895,2.813-9.516,6.193-14.834,8.168
		c-15.879,5.896-31.371,5.283-46.24-3.301c-26.203-15.128-52.388-30.286-78.587-45.417c-5.62-3.246-11.362-6.336-15.757-11.263
		c-9.15-10.253-14.758-21.983-14.758-35.995c-0.001-32.2-0.246-64.403,0.09-96.601c0.209-20.094,9.429-35.432,26.861-45.586
		c22.695-13.221,45.453-26.336,68.217-39.438c6.694-3.854,13.099-8.324,20.258-11.233c14.263-5.796,28.591-5.366,42.505,1.234
		c10.15,4.813,19.503,11.095,29.245,16.658c18.408,10.512,36.602,21.399,55.156,31.643c15.239,8.415,24.222,21.042,27.804,37.803
		c0.518,2.426,0.725,4.909,0.719,7.419C290.273,136.077,290.295,152.635,290.295,169.193z"/>
	<path fill-rule="evenodd" clip-rule="evenodd" fill="#FEFEFE" d="M159.952,116.367c0-6.656,0.044-13.311-0.031-19.966
		c-0.02-1.641,0.324-2.365,2.159-2.368c14.061-0.017,28.143-0.659,42.17,0.409c20.948,1.595,35.061,13.201,42.213,32.292
		c6.282,16.77,5.249,34.032-2.061,50.523c-6.685,15.083-19.003,23.004-34.882,25.952c-7.485,1.391-15.061,1.431-22.63,1.472
		c-8.239,0.043-16.479-0.083-24.721-0.024c-1.72,0.012-2.284-0.432-2.257-2.214c0.101-6.654,0.108-13.311-0.004-19.965
		c-0.034-1.868,0.478-2.383,2.357-2.365c9.988,0.094,19.979,0.103,29.97,0.018c4.315-0.039,8.622-0.313,12.857-1.379
		c8.375-2.106,13.886-7.225,16.396-15.453c3.347-10.961,2.707-21.632-2.621-31.912c-4.177-8.058-10.463-12.719-19.847-12.589
		c-4.826,0.067-9.659,0.108-14.48-0.02c-1.859-0.05-2.177,0.649-2.145,2.299c0.096,5.157-0.026,10.316,0.07,15.473
		c0.029,1.644-0.281,2.326-2.136,2.29c-6.075-0.12-12.155-0.114-18.23-0.002c-1.803,0.033-2.21-0.55-2.187-2.257
		C160.007,129.844,159.952,123.104,159.952,116.367z"/>
	<path fill-rule="evenodd" clip-rule="evenodd" fill="#FEFEFE" d="M152.212,94.575c-4.567,5.012-8.757,9.612-12.951,14.208
		c-1.178,1.29-2.532,2.454-3.521,3.875c-2.045,2.939-4.786,3.639-8.211,3.529c-5.736-0.185-11.487-0.058-17.229,0.091
		c-4.282,0.111-7.15,2.515-8.779,6.317c-1.494,3.491-0.485,6.036,2.773,8.02c6.835,4.159,14.316,7.016,21.416,10.644
		c4.457,2.277,8.643,4.943,12.588,8.037c7.465,5.855,10.299,13.797,9.898,22.861c-0.82,18.506-12.954,30.79-31.423,32.021
		c-16.046,1.069-32.12,0.318-48.181,0.411c-0.137,0.001-0.274-0.12-0.72-0.329c0.694-0.858,1.331-1.671,1.991-2.462
		c5.159-6.205,10.364-12.369,15.456-18.627c1.281-1.574,2.716-2.234,4.707-2.22c6.495,0.051,12.989,0.013,19.483-0.024
		c2.158-0.013,4.32-0.019,6.316-1.093c3.163-1.701,4.645-4.379,4.783-7.896c0.138-3.487-1.221-6.027-4.394-7.714
		c-8.666-4.608-17.884-8.026-26.618-12.48c-10.831-5.522-16.301-14.396-16.109-26.521c0.126-7.935,3.822-14.355,9.61-19.583
		c5.923-5.348,13.021-8.543,20.617-10.705c1.185-0.336,2.464-0.474,3.7-0.477c14.405-0.031,28.81-0.02,43.214-0.016
		C150.942,94.443,151.254,94.494,152.212,94.575z"/>
	<path fill-rule="evenodd" clip-rule="evenodd" fill="#FEFEFE" d="M75.943,231.418c-0.003-4.239,0.054-8.479-0.03-12.718
		c-0.033-1.728,0.46-2.223,2.181-1.706c2.938,0.882,5.02,3.11,5.453,6.144c0.059,0.41,0.039,0.831,0.1,1.24
		c0.28,1.878-0.755,4.361,0.499,5.515c1.439,1.323,3.967,0.381,6.017,0.446c2.24,0.073,4.969,0.741,6.603-0.271
		c1.864-1.155,0.434-4.095,0.706-6.242c0.412-3.268,2.598-5.949,5.717-6.82c1.496-0.417,2.176-0.162,2.168,1.536
		c-0.04,8.478,0.057,16.959-0.056,25.437c-0.05,3.722-2.126,6.312-5.292,7.391c-1.694,0.577-2.64,0.462-2.542-1.739
		c0.139-3.152-0.012-6.317,0.056-9.475c0.027-1.283-0.395-1.759-1.708-1.732c-3.41,0.068-6.823,0.088-10.23-0.008
		c-1.535-0.041-1.771,0.662-1.746,1.95c0.062,3.074-0.095,6.157,0.058,9.225c0.11,2.209-0.932,2.304-2.569,1.833
		c-3.189-0.917-5.295-3.663-5.363-7.288C75.885,239.898,75.946,235.658,75.943,231.418z"/>
	<path fill-rule="evenodd" clip-rule="evenodd" fill="#FEFEFE" d="M217.208,244.137c2.495-0.001,4.991,0.02,7.486-0.008
		c2.008-0.021,3.516-0.882,3.486-3.035c-0.03-2.138-1.508-2.973-3.549-2.95c-2.08,0.022-4.161,0.033-6.241-0.002
		c-5.761-0.099-10.347-4.347-10.622-9.81c-0.309-6.109,3.613-11.059,9.616-11.511c4.716-0.355,9.479-0.084,14.218-0.156
		c1.734-0.026,1.341,1.139,1.215,2.038c-0.427,3.007-3.761,5.646-7.253,5.748c-2.161,0.063-4.328-0.026-6.489,0.031
		c-1.962,0.051-3.476,0.781-3.418,3.055c0.055,2.148,1.555,2.752,3.396,2.814c2.657,0.091,5.34-0.05,7.968,0.266
		c5.263,0.63,8.977,5.123,8.992,10.556c0.018,5.378-3.731,9.854-9.056,10.501c-4.212,0.513-8.47,0.471-12.688,0.016
		c-3.177-0.346-5.431-2.606-6.231-5.663c-0.353-1.343-0.187-1.989,1.433-1.918C212.045,244.221,214.628,244.138,217.208,244.137z"/>
	<path fill-rule="evenodd" clip-rule="evenodd" fill="#FEFEFE" d="M175.565,231.563c0-4.322,0.044-8.644-0.021-12.965
		c-0.023-1.605,0.531-2.047,2.09-1.677c3.097,0.729,5.109,3.359,5.726,7.649c0.101,0.699-0.27,1.739,0.585,1.981
		c0.716,0.203,1.264-0.66,1.783-1.175c2.187-2.164,4.323-4.379,6.54-6.512c2.635-2.535,6.217-2.9,9.159-1.131
		c1.24,0.749,1.356,1.278,0.246,2.341c-3.84,3.681-7.53,7.519-11.39,11.179c-1.291,1.225-1.489,1.9-0.068,3.253
		c4.515,4.297,8.783,8.854,13.309,13.142c1.775,1.684,1.188,2.452-0.541,3.367c-3.02,1.594-6.2,1.189-8.92-1.398
		c-2.828-2.692-5.524-5.522-8.319-8.251c-0.484-0.475-0.872-1.482-1.742-1.064c-0.659,0.316-0.328,1.199-0.334,1.826
		c-0.032,2.659-0.071,5.321,0.008,7.977c0.039,1.4-0.56,1.692-1.81,1.55c-3.212-0.367-5.979-3.365-6.052-6.887
		c-0.089-4.4-0.021-8.804-0.021-13.205C175.717,231.563,175.641,231.563,175.565,231.563z"/>
	<path fill-rule="evenodd" clip-rule="evenodd" fill="#FEFEFE" d="M140.753,232.64c0.736-6.511,4.229-11.854,11.008-14.601
		c6.569-2.663,12.73-1.477,18.203,2.988c2.736,2.232,2.446,3.695-0.884,4.95c-2.316,0.872-4.499,0.36-6.746-0.544
		c-6.392-2.571-12.472,0.874-13.637,7.602c-1.125,6.498,5.14,12.414,11.563,10.869c1.201-0.289,2.347-0.812,3.504-1.265
		c2.563-1.007,4.877-0.398,7.101,0.999c1.319,0.826,1.325,1.651,0.304,2.803c-7.934,8.938-23.863,6.515-28.706-4.41
		C141.242,239.277,140.593,236.382,140.753,232.64z"/>
	<path fill-rule="evenodd" clip-rule="evenodd" fill="#FEFEFE" d="M124.142,216.696c2.979,5.932,5.811,11.564,8.636,17.2
		c2.642,5.274,5.24,10.571,7.938,15.816c0.815,1.585,0.91,2.233-1.266,2.261c-4.326,0.054-7.489-1.273-9.292-5.568
		c-1.691-4.03-3.88-7.852-6.042-12.148c-1.644,3.43-3.101,6.47-4.736,9.883c1.905,0,3.523,0.049,5.135-0.016
		c1.187-0.046,1.4,0.52,1.265,1.533c-0.372,2.79-3.069,5.595-5.943,5.996c-3.892,0.544-7.813,0.172-11.72,0.268
		c-1.274,0.033-1.366-0.467-0.838-1.518C112.869,239.275,118.428,228.13,124.142,216.696z"/>
</g>
</svg>
