<?xml version="1.0" encoding="utf-8"?>
<!-- Generator: Adobe Illustrator 16.0.0, SVG Export Plug-In . SVG Version: 6.00 Build 0)  -->
<!DOCTYPE svg PUBLIC "-//W3C//DTD SVG 1.1//EN" "http://www.w3.org/Graphics/SVG/1.1/DTD/svg11.dtd">
<svg version="1.1" id="Layer_1" xmlns="http://www.w3.org/2000/svg" xmlns:xlink="http://www.w3.org/1999/xlink" x="0px" y="0px"
	 width="3610px" height="609px" viewBox="0 0 3610 609" enable-background="new 0 0 3610 609" xml:space="preserve">
<g>
	<path fill-rule="evenodd" clip-rule="evenodd" fill="#FFFFFF" d="M521.457,256.864c-0.001-46.324-0.005-92.647,0.002-138.971
		c0.002-8.037,0.023-8.049,7.855-8.05c55.655-0.003,111.311-0.004,166.966,0.002c7.207,0.001,7.242,0.023,7.255,7.143
		c0.024,13.664,0.028,27.328-0.003,40.991c-0.016,6.822-0.059,6.848-7.069,6.85c-33.493,0.011-66.986,0-100.479,0.013
		c-7.384,0.003-7.418,0.033-7.428,7.552c-0.021,15.497,0.146,30.996-0.086,46.489c-0.074,5,1.647,6.67,6.646,6.645
		c31.492-0.161,62.986-0.083,94.479-0.066c7.392,0.004,7.4,0.035,7.403,7.441c0.005,13.831-0.153,27.664,0.088,41.49
		c0.075,4.367-1.25,5.715-5.659,5.692c-31.993-0.164-63.986-0.091-95.98-0.078c-6.828,0.002-6.877,0.03-6.887,7.002
		c-0.028,18.33-0.028,36.659-0.001,54.988c0.012,7.289,0.17,7.442,7.668,7.446c35.326,0.019,70.652,0.005,105.979,0.019
		c7.189,0.003,7.323,0.139,7.332,7.244c0.019,13.997-0.102,27.996,0.062,41.991c0.05,4.271-1.427,5.905-5.798,5.898
		c-58.821-0.09-117.643-0.11-176.464,0.026c-5.258,0.013-5.938-2.487-5.93-6.787C521.489,350.846,521.459,303.854,521.457,256.864z"
		/>
	<path fill-rule="evenodd" clip-rule="evenodd" fill="#FFFFFF" d="M949.506,104.963c25.561,0.834,47.107,4.479,67.805,12.733
		c3.992,1.592,4.814,3.439,3.645,7.458c-4.234,14.55-8.253,29.167-12.106,43.823c-1.056,4.016-2.582,4.502-6.273,2.894
		c-22.421-9.771-45.757-14.111-70.196-10.831c-6.671,0.896-12.921,3.204-18.481,7.136c-13.777,9.745-14.68,28.055-1.888,39.064
		c7.172,6.172,15.638,10.137,24.256,13.736c13.06,5.455,26.352,10.376,39.282,16.114c15.356,6.814,29.359,15.814,40.395,28.753
		c29.447,34.527,22.613,90.354-14.478,118.859c-17.707,13.608-38.187,20.173-59.982,22.884
		c-33.991,4.227-67.209,0.653-99.209-11.778c-13.514-5.249-10.843-3.586-8.104-15.563c3.006-13.149,6.608-26.162,9.578-39.318
		c0.981-4.352,2.389-4.915,6.316-3.084c22.492,10.487,46.101,16.312,71.027,16.127c8.895-0.065,17.601-1.405,25.848-4.941
		c21.796-9.346,25.42-34.782,7.018-49.707c-9.458-7.671-20.624-12.187-31.907-16.284c-17.417-6.326-34.616-13.036-49.905-23.797
		c-19.965-14.05-34.01-32.032-36.108-57.163c-3.183-38.113,15.747-69.235,51.062-85.179
		C908.061,107.434,930.192,104.632,949.506,104.963z"/>
	<path fill-rule="evenodd" clip-rule="evenodd" fill="#FFFFFF" d="M1309.979,409.153c-23.413,0.26-45.145-2.496-66.09-10.012
		c-42.271-15.167-70.436-44.173-83.248-87.215c-10.962-36.825-10.113-73.837,2.697-110.089
		c14.062-39.796,41.402-67.641,80.366-83.366c43.705-17.639,88.384-17.532,133.244-4.369c10.274,3.015,10.167,3.392,7.522,13.744
		c-3.256,12.75-6.637,25.469-9.706,38.263c-0.979,4.083-2.388,4.84-6.466,3.329c-22.581-8.367-45.869-11.324-69.763-7.579
		c-40.752,6.387-67.855,34.277-73.489,75.295c-2.195,15.979-2.095,31.913,1.348,47.707c8.683,39.826,38.498,65.281,79.543,68.152
		c21.363,1.494,42.253-0.941,62.631-7.467c3.409-1.092,5.021-1.005,5.753,3.096c2.576,14.427,5.437,28.806,8.374,43.165
		c0.725,3.544-0.591,5.152-3.73,6.356c-14.28,5.479-29.176,8.097-44.281,9.758C1326.064,408.87,1317.411,409.282,1309.979,409.153z"
		/>
	<path fill-rule="evenodd" clip-rule="evenodd" fill="#FFFFFF" d="M317.834,285.249c-0.001,37.496,0.005,74.993-0.007,112.489
		c-0.002,6.681-0.077,6.779-6.625,6.791c-17.998,0.031-35.998-0.131-53.994,0.1c-5.046,0.064-6.476-1.624-6.466-6.631
		c0.146-73.826,0.116-147.652,0.081-221.479c-0.006-12.169,1.181-10.445-10.247-10.494c-20.998-0.09-41.997-0.126-62.994,0.053
		c-4.268,0.036-5.889-1.115-5.821-5.604c0.229-14.995,0.221-29.998,0.005-44.993c-0.063-4.415,1.472-5.711,5.784-5.706
		c71.66,0.102,143.319,0.105,214.979-0.004c4.423-0.006,5.757,1.486,5.698,5.791c-0.199,14.662-0.245,29.333,0.023,43.993
		c0.09,4.908-1.226,6.629-6.416,6.562c-21.661-0.282-43.328-0.16-64.992-0.097c-9.712,0.028-8.989-1.266-8.998,9.24
		C317.817,211.922,317.835,248.586,317.834,285.249z"/>
	<path fill-rule="evenodd" clip-rule="evenodd" fill="#FFFFFF" d="M1759.097,192.62c0-16.158,0.268-34.327-0.085-52.483
		c-0.278-14.281-4.973-18.75-19.338-20.034c-2.029-0.181-4.728,0.399-4.481-3.087c0.209-2.951,2.547-2.686,4.479-2.688
		c21.33-0.036,42.661-0.034,63.992,0.005c1.946,0.004,4.216-0.2,4.313,2.825c0.099,3.112-2.232,2.753-4.154,2.955
		c-14.537,1.533-19.37,5.677-19.488,19.967c-0.299,36.148-1.627,72.34,0.646,108.444c2.019,32.059,20.593,46.438,52.446,42.045
		c19.873-2.74,29.883-12.175,33.834-31.877c1.482-7.39,1.837-14.87,1.837-22.379c0.002-30.664,0.002-61.327-0.005-91.99
		c0-1.666-0.03-3.333-0.116-4.997c-0.666-12.927-5.474-17.95-18.281-19.125c-0.995-0.091-1.993-0.171-2.99-0.229
		c-1.573-0.091-2.455-0.859-2.528-2.478c-0.082-1.812,0.804-2.821,2.564-3.051c0.823-0.108,1.661-0.141,2.493-0.142
		c17.831-0.008,35.662-0.008,53.494-0.002c0.832,0,1.665,0.046,2.495,0.109c1.726,0.13,2.766,0.894,2.779,2.803
		c0.015,1.906-0.944,2.643-2.729,2.798c-2.486,0.217-4.986,0.426-7.437,0.88c-7.606,1.409-11.283,5.112-12.786,12.748
		c-0.808,4.103-0.993,8.258-0.989,12.437c0.021,31.33-0.007,62.66,0.022,93.99c0.008,7.854-0.6,15.638-2.014,23.368
		c-3.479,19.023-14.499,31.088-33.303,35.655c-18.439,4.478-37.071,4.506-55.499,0.273c-23.694-5.442-35.648-20.049-38.135-45.774
		C1758.238,233.967,1759.771,214.276,1759.097,192.62z"/>
	<path fill-rule="evenodd" clip-rule="evenodd" fill="#FFFFFF" d="M2090.047,276.687c-0.273-4.989-0.543-9.978-0.82-14.966
		c-0.11-1.996,0.108-3.72,2.697-3.848c2.098-0.104,4.137-0.08,4.724,2.512c6.032,26.625,39.773,33.851,60.611,26.485
		c8.296-2.932,14.958-7.949,19.485-15.587c7.3-12.313,5.662-26.479-4.234-36.803c-6.792-7.085-15.203-11.855-23.74-16.409
		c-9.551-5.095-19.211-9.986-28.715-15.167c-3.643-1.985-7.066-4.406-10.443-6.832c-15.86-11.395-20.463-27.277-17.675-45.798
		c2.67-17.736,13.828-28.297,30.167-33.905c19.478-6.685,39.497-5.118,59.375-2.8c15.749,1.836,15.684,2.311,16.42,18.233
		c0.285,6.155,0.641,12.307,0.928,18.462c0.085,1.809,0.438,3.838-2.301,4.108c-2.475,0.244-4.326,0.016-5.42-2.95
		c-8.825-23.957-32.574-35.058-56.383-26.401c-10.927,3.973-18.514,11.241-20.571,23.052c-2.069,11.88,3.399,20.61,12.526,27.518
		c8.432,6.381,18.005,10.729,27.459,15.278c12.331,5.933,24.381,12.344,35.139,20.905c10.525,8.377,16.912,18.994,18.01,32.678
		c2.014,25.107-9.86,43.576-33.667,52.198c-15.386,5.572-31.267,6.189-47.336,5.094c-10.146-0.691-20.175-2.326-30.219-3.877
		c-3.841-0.593-5.391-2.285-5.366-6.208c0.032-4.986-0.489-9.978-0.771-14.966C2089.966,276.69,2090.006,276.688,2090.047,276.687z"
		/>
	<path fill-rule="evenodd" clip-rule="evenodd" fill="#FFFFFF" d="M1938.267,198.015c0.144,15.21,1.386,30.273,5.73,44.96
		c9.43,31.883,34.305,48.987,67.52,46.543c9.198-0.677,18.225-1.998,26.848-5.335c3.278-1.269,4.458-0.511,4.571,3.064
		c0.235,7.429,0.18,7.68-6.907,9.72c-17.524,5.045-35.474,6.432-53.481,4.656c-32.196-3.173-53.422-21.151-63.947-51.195
		c-10.471-29.885-10.97-60.604-2.711-91.05c7.943-29.28,29.433-45.679,59.78-47.239c20.09-1.033,39.929,0.583,59.463,5.731
		c3.961,1.044,5.438,2.889,5.607,6.821c0.482,11.149,1.267,22.286,1.872,33.43c0.112,2.077,0.708,4.503-2.64,4.882
		c-3.001,0.339-4.598-0.799-5.394-3.766c-1.472-5.493-3.701-10.701-6.822-15.492c-11.463-17.592-28.419-22.756-48.164-20.624
		c-17.854,1.928-28.654,12.908-34.738,29.125C1939.315,167.006,1938.51,182.478,1938.267,198.015z"/>
	<path fill-rule="evenodd" clip-rule="evenodd" fill="#FFFFFF" d="M2268.508,348.382c-174.462,0-348.924,0.001-523.387-0.005
		c-2.331,0-4.664-0.048-6.994-0.124c-1.991-0.065-2.999-1.046-3.012-3.14c-0.013-2.067,0.853-3.112,2.934-3.13
		c1.499-0.013,2.998-0.065,4.498-0.065c349.258-0.003,698.516-0.001,1047.773-0.025c3.561-0.001,6.929-0.093,9.326,3.33
		c1.43,2.04,1.308,2.971-1.254,3.087c-1.996,0.09-3.998,0.07-5.998,0.07C2617.766,348.382,2443.137,348.382,2268.508,348.382z"/>
	<path fill-rule="evenodd" clip-rule="evenodd" fill="#FFFFFF" d="M2365.98,212.413c1.515-2.707,2.949-5.461,4.557-8.11
		c10.231-16.872,24.72-23.673,42.915-20.342c9.769,1.789,15.785,7.37,17.897,17.091c1.426,6.558,1.564,13.23,1.579,19.896
		c0.041,18.5-0.015,36.999,0.028,55.498c0.027,12.556,3.129,16.271,15.32,18.532c1.341,0.249,2.808,0.252,2.902,2.046
		c0.117,2.215-1.636,2.278-3.113,2.282c-16.498,0.035-32.997,0.034-49.495-0.013c-1.43-0.004-3.272,0.063-3.381-2.059
		c-0.113-2.198,1.756-2.017,3.181-2.274c11.313-2.051,14.772-5.842,14.838-17.471c0.118-21.163-0.053-42.329-0.139-63.493
		c-0.008-1.826-0.157-3.67-0.443-5.474c-1.854-11.673-12.114-16.754-22.705-11.258c-2.988,1.551-5.602,3.65-7.826,6.152
		c-10.674,12.005-16.812,25.979-17.331,42.097c-0.344,10.655-0.176,21.332-0.035,31.996c0.152,11.466,3.581,15.358,14.888,17.459
		c1.432,0.266,3.289,0.105,3.153,2.303c-0.133,2.126-1.989,2.019-3.409,2.023c-16.332,0.055-32.664,0.061-48.996,0.03
		c-1.428-0.003-3.23,0.185-3.391-2.007c-0.197-2.694,1.984-2.15,3.488-2.38c10.238-1.563,14.43-5.898,14.514-16.255
		c0.188-23.331,0.147-46.665,0.022-69.996c-0.044-8.138-3.976-12.589-11.915-14.365c-1.135-0.254-2.302-0.371-3.457-0.531
		c-1.629-0.226-2.907-0.793-2.879-2.756c0.026-1.807,1.374-2.125,2.709-2.334c10.533-1.654,21.075-3.256,31.607-4.918
		c3.753-0.592,3.582,1.981,3.591,4.355c0.03,7.97,0.012,15.94,0.012,23.91C2365.105,212.17,2365.543,212.292,2365.98,212.413z"/>
	<path fill-rule="evenodd" clip-rule="evenodd" fill="#FFFFFF" d="M1564.261,300.438c0.002-66.629-0.003-133.258,0.01-199.886
		c0.001-6.441,1.021-7.307,6.688-6.649c2.322,0.27,3.217,1.368,3.231,3.528c0.012,1.665,0.072,3.331,0.072,4.996
		c0.003,132.425,0.003,264.85,0.001,397.274c0,1.332-0.109,2.671-0.016,3.996c0.255,3.629-1.699,4.477-4.919,4.468
		c-3.133-0.008-5.249-0.635-5.054-4.344c0.097-1.826-0.015-3.663-0.015-5.495C1564.259,432.362,1564.26,366.4,1564.261,300.438z"/>
	<path fill-rule="evenodd" clip-rule="evenodd" fill="#FFFFFF" d="M2688.084,233.563c0.006,13.655-0.001,27.31,0.014,40.964
		c0.002,1.83-0.005,3.671,0.187,5.487c1.017,9.649,4.675,13.413,14.333,14.908c1.544,0.239,3.764-0.209,3.745,2.234
		c-0.018,2.424-2.197,2.162-3.765,2.166c-16.152,0.047-32.305,0.047-48.457-0.008c-1.552-0.006-3.74,0.266-3.763-2.167
		c-0.022-2.479,2.227-1.975,3.747-2.215c9.789-1.548,14.186-5.563,14.341-15.383c0.376-23.806,0.3-47.623,0.064-71.432
		c-0.079-7.936-4.167-12.101-11.936-13.809c-1.298-0.285-2.638-0.381-3.942-0.636c-1.402-0.274-2.516-0.861-2.477-2.582
		c0.033-1.478,0.973-2.047,2.211-2.242c10.852-1.707,21.7-3.438,32.565-5.051c3.479-0.516,3.106,2.191,3.11,4.302
		C2688.092,203.256,2688.078,218.41,2688.084,233.563z"/>
	<path fill-rule="evenodd" clip-rule="evenodd" fill="#FFFFFF" d="M2737.934,447.695c0-14.166,0.125-28.334-0.075-42.498
		c-0.061-4.286,1.286-5.937,5.698-5.873c13.663,0.195,27.332,0.144,40.998,0.022c3.851-0.034,5.778,0.971,5.732,5.329
		c-0.044,4.118-1.453,5.563-5.552,5.475c-9.495-0.203-19.001,0.094-28.497-0.114c-4.131-0.09-5.626,1.405-5.48,5.508
		c0.235,6.658,0.172,13.333,0.035,19.997c-0.07,3.423,1.299,4.775,4.712,4.737c8.999-0.102,18.001,0.104,26.998-0.053
		c3.933-0.068,5.687,1.092,5.679,5.384c-0.009,4.238-1.629,5.462-5.626,5.373c-8.828-0.196-17.667,0.077-26.497-0.102
		c-3.828-0.077-5.394,1.202-5.295,5.166c0.203,8.161,0.222,16.336-0.009,24.496c-0.117,4.119,1.789,5.127,5.419,5.093
		c10.332-0.096,20.668,0.117,30.998-0.072c4.211-0.077,5.446,1.646,5.462,5.632c0.017,4.232-2.108,4.9-5.64,4.875
		c-14.498-0.105-29.001-0.182-43.497,0.036c-4.516,0.067-5.687-1.716-5.633-5.912
		C2738.046,476.03,2737.934,461.862,2737.934,447.695z"/>
	<path fill-rule="evenodd" clip-rule="evenodd" fill="#FFFFFF" d="M2318.597,435.22c1.649-1.494,2.843-2.624,4.087-3.695
		c14.755-12.718,35.853-5.845,40.189,13.099c1.654,7.228,1.078,14.583,1.138,21.896c0.065,7.991-0.257,15.996,0.102,23.972
		c0.231,5.141-2.403,5.654-6.44,5.606c-3.867-0.046-6.77-0.141-6.602-5.443c0.326-10.313,0.114-20.644,0.069-30.966
		c-0.013-2.827-0.006-5.682-0.385-8.473c-1.405-10.355-7.186-15.731-16.245-15.327c-9.063,0.403-16.519,7.835-16.791,17.26
		c-0.27,9.316-0.086,18.646-0.1,27.97c-0.004,2.331,0.004,4.662-0.004,6.993c-0.027,8.127-0.395,8.33-8.499,7.958
		c-3.323-0.152-4.345-1.592-4.239-4.642c0.121-3.492,0.011-6.992,0.011-10.488c-0.001-26.64,0.098-53.28-0.089-79.919
		c-0.033-4.757,0.934-7.103,6.277-6.779c6.216,0.376,6.513,0.328,6.532,7.021c0.027,9.323-0.006,18.647,0.024,27.972
		C2317.639,431.016,2317.355,432.866,2318.597,435.22z"/>
	<path fill-rule="evenodd" clip-rule="evenodd" fill="#FFFFFF" d="M2194.981,497.41c-6.894-0.094-13.627-1.083-19.997-3.828
		c-4.499-1.939-4.717-3.744-2.099-9.768c1.831-4.214,4.111-1.26,6.03-0.501c8.08,3.193,16.287,4.904,24.897,2.646
		c6.284-1.647,10.757-5.398,12.05-11.978c1.341-6.826-0.828-12.479-6.543-16.647c-3.815-2.783-8.149-4.511-12.501-6.195
		c-4.99-1.932-9.824-4.146-14.118-7.399c-14.363-10.881-13.195-32.263,2.528-41.082c11.844-6.643,24.329-5.985,36.749-1.512
		c5.32,1.916,1.623,5.458,1.074,8.301c-0.679,3.519-2.9,2.682-5.313,1.771c-6.157-2.324-12.5-3.619-19.096-2.28
		c-6.313,1.282-11.2,4.378-12.762,11.088c-1.469,6.307,0.991,11.484,7.209,15.663c4.186,2.813,8.918,4.481,13.532,6.39
		c4.17,1.725,8.21,3.675,11.855,6.374c15.757,11.668,14.062,35.315-3.188,44.647C2208.936,496.538,2202.059,497.422,2194.981,497.41
		z"/>
	<path fill-rule="evenodd" clip-rule="evenodd" fill="#FFFFFF" d="M2999.233,436.135c4.511-5.201,9.482-8.879,15.948-10.317
		c14.116-3.14,26.206,4.245,29.662,18.282c0.881,3.578,1.198,7.218,1.189,10.902c-0.028,10.663-0.006,21.326-0.008,31.99
		c-0.001,9.018-0.004,9.018-6.313,9.036c-6.571,0.02-6.574,0.02-6.578-8.801c-0.004-9.497,0.001-18.994-0.003-28.491
		c-0.001-1.499,0.017-3-0.041-4.498c-0.457-11.902-6.194-18.502-15.943-18.364c-9.842,0.14-17.06,7.932-17.384,18.785
		c-0.045,1.498-0.023,2.999-0.024,4.498c-0.003,9.997,0.016,19.994-0.01,29.991c-0.018,6.771-0.261,6.774-7.062,6.952
		c-4.213,0.109-5.895-1.128-5.87-5.64c0.108-19.824-0.049-39.65-0.266-59.474c-0.033-3.077,1.03-4.479,3.989-4.092
		c2.764,0.362,6.771-1.762,7.394,3.408C2998.126,432.059,2997.609,433.963,2999.233,436.135z"/>
	<path fill-rule="evenodd" clip-rule="evenodd" fill="#FFFFFF" d="M3292.118,436.125c4.492-5.546,10.001-9.24,16.983-10.551
		c13.146-2.468,24.445,4.396,28.131,17.231c1.064,3.709,1.612,7.507,1.633,11.347c0.063,12.165-0.189,24.335,0.134,36.491
		c0.141,5.313-2.72,5.406-6.592,5.453c-4.037,0.049-6.62-0.462-6.463-5.604c0.325-10.655,0.112-21.327,0.071-31.992
		c-0.009-2.495-0.032-5.015-0.363-7.48c-1.285-9.599-6.632-14.95-14.942-15.144c-8.66-0.202-16.096,5.809-17.724,14.552
		c-0.483,2.6-0.557,5.301-0.574,7.957c-0.068,10.831-0.204,21.667,0.021,32.493c0.103,4.954-2.687,5.219-6.384,5.192
		c-3.614-0.024-6.47-0.077-6.454-5.104c0.064-19.993-0.14-39.987-0.311-59.98c-0.022-2.595,0.684-4.409,3.579-4.06
		c2.786,0.336,6.657-1.859,7.744,3.022C3291.026,431.826,3290.354,433.94,3292.118,436.125z"/>
	<path fill-rule="evenodd" clip-rule="evenodd" fill="#FFFFFF" d="M2816.357,436.747c7.045-8.551,15.076-12.371,24.912-11.515
		c11.66,1.016,20.057,8.969,21.538,21.391c1.816,15.234,0.733,30.601,0.575,45.905c-0.057,5.519-4.875,2.998-7.73,3.433
		c-3.213,0.489-4.908-0.867-4.872-4.452c0.112-11.321,0.081-22.645-0.023-33.967c-0.027-2.978-0.258-6.006-0.857-8.916
		c-1.215-5.903-4.195-10.584-10.434-12.178c-6.278-1.604-11.904-0.149-16.573,4.41c-3.89,3.799-5.686,8.513-5.683,13.939
		c0.006,11.655-0.185,23.315,0.073,34.965c0.104,4.697-1.291,6.618-6.196,6.347c-6.087-0.338-6.419-0.353-6.474-6.563
		c-0.17-19.145,0.376-38.294-0.502-57.432c-0.131-2.848-0.185-5.54,3.89-5.247c3.241,0.232,7.472-1.336,7.569,4.395
		C2815.595,432.703,2815.97,434.14,2816.357,436.747z"/>
	<path fill-rule="evenodd" clip-rule="evenodd" fill="#FFFFFF" d="M2668.129,466.038c0-8.153-0.102-16.309,0.047-24.459
		c0.063-3.463-0.958-5.495-4.734-5.231c-3.707,0.26-4.857-1.582-4.931-5.105c-0.075-3.661,1.577-4.748,4.827-4.413
		c3.771,0.388,4.829-1.521,4.902-5.028c0.073-3.466,0.535-6.993,1.362-10.362c3.381-13.779,15.957-21.211,29.836-18.066
		c3.866,0.876,4.519,2.688,3.852,6.377c-0.677,3.743-2.021,4.45-5.673,3.759c-8.241-1.561-13.52,2.001-15.656,10.082
		c-0.59,2.229-0.623,4.599-1.008,6.888c-0.793,4.706,0.921,6.948,5.893,6.384c1.807-0.205,3.664,0.08,5.485-0.043
		c3.336-0.225,5.321,0.616,5.351,4.574c0.031,4.12-1.953,4.949-5.555,4.999c-11.298,0.157-11.296,0.259-11.299,11.582
		c-0.002,14.144-0.176,28.29,0.083,42.429c0.092,4.979-2.216,5.756-6.388,5.717c-4.045-0.039-6.671-0.521-6.461-5.625
		c0.334-8.14,0.09-16.303,0.09-24.456C2668.145,466.038,2668.137,466.038,2668.129,466.038z"/>
	<path fill-rule="evenodd" clip-rule="evenodd" fill="#FFFFFF" d="M2107.273,497.398c-6.787,0.027-11.98-0.865-17.107-2.566
		c-5.039-1.671-3.051-4.816-2.22-7.996c1.017-3.894,3.149-2.717,5.64-1.688c5.778,2.386,11.711,3.925,17.992,2.008
		c3.959-1.209,6.792-3.556,7.437-7.857c0.627-4.18-0.912-7.496-4.319-9.976c-2.59-1.884-5.502-3.114-8.486-4.187
		c-3.309-1.189-6.466-2.671-9.358-4.68c-5.712-3.966-9.251-9.196-8.652-16.388c0.631-7.587,4.552-13.168,11.489-16.324
		c8.706-3.962,17.477-3.247,26.24,0.076c4.271,1.618,2.183,4.351,1.532,6.955c-0.776,3.111-2.475,3.431-5.178,2.194
		c-3.847-1.758-7.952-2.51-12.184-2.018c-4.434,0.515-8.119,2.315-9.282,7.034c-1.238,5.026,1.352,8.285,5.555,10.552
		c5.274,2.845,11.205,4.295,16.228,7.695c9.165,6.205,11.866,17.484,6.292,26.746c-3.529,5.863-9.128,8.581-15.57,9.8
		C2110.878,497.241,2108.358,497.294,2107.273,497.398z"/>
	<path fill-rule="evenodd" clip-rule="evenodd" fill="#FFFFFF" d="M1907.173,497.411c-20.975,0.11-34.701-13.402-35.101-34.558
		c-0.408-21.619,14.367-37.027,36.136-37.636c5.204-0.145,10.264,0.745,15.253,2.24c4.769,1.429,2.432,4.47,1.878,7.213
		c-0.606,3.007-2.083,3.856-4.97,2.587c-1.5-0.66-3.187-1.015-4.825-1.227c-10.144-1.315-19.585-0.028-25.689,9.279
		c-6.259,9.543-6.53,19.876-1.452,29.964c5.329,10.586,17.036,14.57,30.797,10.358c4.877-1.492,6.095,0.064,6.832,4.292
		c0.508,2.909-0.381,4.321-3.1,5.174C1917.786,496.712,1912.527,497.335,1907.173,497.411z"/>
	<path fill-rule="evenodd" clip-rule="evenodd" fill="#FFFFFF" d="M2274.025,497.409c-22.407,0.145-36.067-14.557-35.115-37.793
		c0.877-21.394,18.178-36.211,40.129-34.277c2.969,0.262,5.939,0.81,8.838,1.516c5.802,1.413,6.07,2.241,4.085,7.983
		c-0.889,2.57-2.085,3.575-4.762,2.442c-1.364-0.577-2.856-0.952-4.327-1.162c-10.278-1.47-19.964-0.402-26.236,9.023
		c-6.413,9.639-6.651,20.164-1.426,30.374c5.295,10.347,17.055,14.271,30.422,10.242c6.209-1.872,5.615-0.927,7.02,4.446
		c0.708,2.71-0.472,3.996-2.904,4.803C2284.634,496.703,2279.377,497.336,2274.025,497.409z"/>
	<path fill-rule="evenodd" clip-rule="evenodd" fill="#FFFFFF" d="M1793.023,437c0,10.657,0.422,21.334-0.084,31.967
		c-1.25,26.277-19.473,31.114-38.146,27.646c-4.35-0.809-3.849-3.529-3.344-6.748c0.521-3.314,1.796-4.683,5.284-3.76
		c2.063,0.546,4.283,0.679,6.433,0.68c9.468,0.007,14.617-4.076,16.427-13.383c0.725-3.73,0.917-7.609,0.936-11.423
		c0.095-18.818,0.181-37.638-0.035-56.454c-0.057-4.922,1.825-6.242,6.449-6.255c4.655-0.013,6.524,1.334,6.379,6.258
		c-0.312,10.482-0.096,20.98-0.096,31.472C1793.159,437,1793.091,437,1793.023,437z"/>
	<path fill-rule="evenodd" clip-rule="evenodd" fill="#FFFFFF" d="M2533.98,444.787c-0.002-14.975,0.189-29.953-0.107-44.922
		c-0.103-5.179,2.501-5.625,6.476-5.588c3.823,0.035,6.649,0.079,6.612,5.421c-0.21,30.28-0.207,60.563,0,90.845
		c0.035,5.172-2.479,5.604-6.469,5.55c-3.811-0.052-6.718-0.021-6.614-5.387C2534.174,475.405,2533.982,460.094,2533.98,444.787z"/>
	<path fill-rule="evenodd" clip-rule="evenodd" fill="#FFFFFF" d="M3216.308,438.177c2.954-4.654,5.769-8.782,10.445-10.965
		c1.348-0.629,2.764-1.181,4.206-1.521c2.401-0.566,5.399-1.699,7.006,0.59c1.966,2.8,1.087,6.418,0.594,9.67
		c-0.219,1.444-1.797,1.269-2.923,1.233c-10.603-0.333-16.723,7.766-18.064,17.124c-1.161,8.101-0.353,16.276-0.524,24.416
		c-0.087,4.156-0.241,8.33,0.027,12.471c0.311,4.791-2.604,4.913-6.05,4.863c-3.419-0.049-6.722,0.402-6.65-4.823
		c0.175-12.804,0.069-25.613,0.02-38.42c-0.027-7.149-0.056-14.304-0.31-21.447c-0.111-3.155,0.871-4.791,4.177-4.499
		c2.889,0.255,6.715-1.272,6.97,3.898C3215.34,433.004,3214.888,435.382,3216.308,438.177z"/>
	<path fill-rule="evenodd" clip-rule="evenodd" fill="#FFFFFF" d="M406.458,477.822c0-7.665,0.102-15.333-0.043-22.996
		c-0.071-3.779,1.305-5.503,5.24-5.409c6.828,0.162,13.664-0.008,20.495,0.08c2.239,0.028,5.015-0.343,4.878,3.318
		c-0.139,3.691-2.997,2.925-5.165,2.983c-4.663,0.124-9.332,0.119-13.997,0.064c-2.724-0.032-3.895,1.127-3.858,3.89
		c0.213,16.313-2.082,13,12.36,13.4c2.165,0.06,4.332,0.044,6.497,0.079c1.98,0.032,3.045,0.896,3.088,3.033
		c0.043,2.16-1.085,3.095-2.997,3.146c-4.496,0.121-9.003,0.286-13.492,0.112c-4.029-0.156-5.51,1.309-5.54,5.488
		c-0.108,14.819-0.247,14.816,14.552,14.822c2.166,0.001,4.333,0.068,6.498,0.03c2.265-0.041,3.433,0.96,3.362,3.271
		c-0.063,2.092-1.205,2.863-3.224,2.854c-8.332-0.041-16.664-0.073-24.995,0.013c-3.46,0.036-3.617-2.263-3.63-4.685
		c-0.038-7.832-0.014-15.664-0.014-23.496C406.469,477.822,406.463,477.822,406.458,477.822z"/>
	<path fill-rule="evenodd" clip-rule="evenodd" fill="#FFFFFF" d="M2969.133,461.104c-0.001,9.998-0.191,20.002,0.077,29.992
		c0.14,5.207-3.024,4.892-6.505,4.976c-3.697,0.09-6.493-0.16-6.453-5.122c0.156-19.662,0.188-39.327-0.017-58.987
		c-0.057-5.453,3.155-5.099,6.835-5.18c3.851-0.085,6.306,0.472,6.154,5.33C2968.924,441.768,2969.135,451.439,2969.133,461.104z"/>
	<path fill-rule="evenodd" clip-rule="evenodd" fill="#FFFFFF" d="M3261.969,461.133c0.001,9.99-0.186,19.985,0.078,29.968
		c0.138,5.193-3.009,4.968-6.5,4.954c-3.448-0.014-6.582,0.343-6.528-4.904c0.201-19.812,0.211-39.627-0.006-59.438
		c-0.058-5.264,3.034-4.914,6.484-4.896c3.408,0.018,6.697-0.452,6.55,4.848C3261.772,441.481,3261.968,451.31,3261.969,461.133z"/>
	<path fill-rule="evenodd" clip-rule="evenodd" fill="#FFFFFF" d="M864.844,448.522c2.797,0.202,5.938,0.437,8.973,1.489
		c2.166,0.752,2.793,2.045,2.12,4.226c-0.691,2.237-1.897,2.851-4.121,2.012c-3.316-1.253-6.79-1.741-10.313-1.16
		c-3.713,0.612-6.611,2.422-7.516,6.326c-0.895,3.863,0.552,7.021,3.892,8.948c3.299,1.904,6.876,3.325,10.316,4.988
		c8.441,4.083,11.785,9.647,10.693,17.748c-0.97,7.198-6.516,12.141-15.259,13.539c-5.399,0.864-10.602-0.035-15.698-1.85
		c-2.607-0.927-3.065-2.517-2.148-5.068c0.987-2.747,2.607-1.911,4.351-1.195c4.26,1.749,8.669,2.395,13.207,1.527
		c3.889-0.742,6.78-2.798,7.668-6.883c0.909-4.185-0.537-7.516-3.996-10.002c-3.292-2.366-7.257-3.305-10.815-5.105
		c-6.014-3.042-10.394-7.224-10.174-14.614C846.286,454.6,853.772,448.541,864.844,448.522z"/>
	<path fill-rule="evenodd" clip-rule="evenodd" fill="#FFFFFF" d="M1168.106,506.98c-18.18,0.08-29.281-11.535-28.93-29.6
		c0.342-17.568,13.078-29.569,30.716-28.801c2.969,0.129,5.928,0.737,8.863,1.28c2.335,0.433,3.4,1.646,2.585,4.278
		c-0.753,2.432-2.099,2.53-4.164,1.945c-4.886-1.384-9.839-1.625-14.785-0.301c-10.528,2.819-16.396,12.479-15.188,24.923
		c1.126,11.593,7.905,18.614,18.944,19.57c3.845,0.333,7.641,0,11.358-1.094c1.806-0.53,3.163-0.389,3.815,1.839
		c0.643,2.191,0.213,3.48-2.051,4.178C1175.418,506.387,1171.476,506.872,1168.106,506.98z"/>
	<path fill-rule="evenodd" clip-rule="evenodd" fill="#FFFFFF" d="M454.541,470.23c1.061-0.773,1.742-1.196,2.338-1.719
		c4.849-4.249,10.411-5.142,16.287-2.908c6.035,2.294,8.371,7.529,8.656,13.465c0.375,7.797,0.084,15.625,0.166,23.439
		c0.027,2.582-1.127,3.472-3.62,3.501c-2.496,0.03-3.757-0.943-3.822-3.42c-0.053-1.994-0.06-3.989-0.097-5.984
		c-0.104-5.482,0.042-10.986-0.385-16.444c-0.482-6.172-3.812-9.323-8.984-9.245c-5.343,0.08-9.713,4.124-9.958,9.849
		c-0.29,6.806-0.141,13.633-0.111,20.45c0.012,2.709-0.097,4.857-3.853,4.834c-3.635-0.021-4.007-2.009-3.996-4.797
		c0.035-9.978-0.086-19.956,0.073-29.931c0.034-2.135-1.577-5.28,2.381-6.042C453.23,464.583,453.964,467.193,454.541,470.23z"/>
	<path fill-rule="evenodd" clip-rule="evenodd" fill="#FFFFFF" d="M566.407,470.463c3.896-3.271,7.255-5.598,11.635-5.92
		c8.634-0.637,15.108,4.554,15.722,13.681c0.545,8.114,0.129,16.291,0.218,24.438c0.029,2.709-1.399,3.297-3.769,3.344
		c-2.607,0.052-3.649-1.193-3.675-3.572c-0.056-5.155-0.047-10.312-0.098-15.468c-0.021-2.16,0.003-4.333-0.218-6.477
		c-0.653-6.319-3.618-9.509-8.738-9.585c-5.479-0.081-10.063,4.065-10.348,10.047c-0.33,6.971-0.164,13.968-0.131,20.953
		c0.012,2.491-0.487,4.105-3.534,4.121c-2.821,0.015-3.938-1.203-3.961-3.83c-0.1-11.142-0.196-22.283-0.313-33.425
		c-0.023-2.155,0.74-3.354,3.121-3.571C565.702,464.891,566.023,467.21,566.407,470.463z"/>
	<path fill-rule="evenodd" clip-rule="evenodd" fill="#FFFFFF" d="M1262.842,500.806c-1.882,1.441-3.015,2.385-4.221,3.222
		c-9.517,6.601-21.021,1.941-22.658-9.46c-1.232-8.59-0.427-17.296-0.41-25.952c0.004-2.537,1.402-3.451,3.85-3.418
		c2.509,0.033,3.607,1.074,3.593,3.615c-0.041,6.996-0.146,13.999,0.109,20.987c0.25,6.854,3.155,10.294,8.277,10.539
		c5.843,0.279,10.408-3.988,10.564-10.185c0.159-6.326-0.008-12.66,0.081-18.989c0.037-2.647-0.956-5.971,3.725-5.983
		c4.413-0.013,4.073,2.961,4.077,5.832c0.011,9.661,0.107,19.325-0.068,28.984c-0.038,2.087,1.748,5.285-2.396,5.938
		C1263.826,506.493,1262.722,504.397,1262.842,500.806z"/>
	<path fill-rule="evenodd" clip-rule="evenodd" fill="#FFFFFF" d="M349.33,470.288c1.919-1.475,3.047-2.455,4.282-3.272
		c8.706-5.759,19.983-1.901,22.283,8.087c2.143,9.306,0.771,18.882,0.766,28.34c-0.001,2.617-2.149,2.493-4.017,2.519
		c-1.895,0.026-3.285-0.545-3.368-2.729c-0.051-1.329-0.103-2.658-0.109-3.988c-0.029-5.988,0.106-11.982-0.102-17.964
		c-0.235-6.769-3.5-10.367-8.973-10.367c-5.669,0-9.963,4.352-10.168,10.716c-0.203,6.315-0.055,12.641-0.104,18.962
		c-0.021,2.638,0.43,5.436-3.813,5.439c-4.235,0.005-3.812-2.778-3.828-5.426c-0.063-9.979-0.134-19.961-0.099-29.94
		c0.008-2.12-1.01-4.891,2.645-5.409C348.188,464.762,348.935,467.037,349.33,470.288z"/>
	<path fill-rule="evenodd" clip-rule="evenodd" fill="#FFFFFF" d="M1058.393,470.097c3.724-3.379,7.539-5.567,12.317-5.59
		c7.18-0.034,12.78,3.946,14.061,10.995c1.646,9.066,0.668,18.28,0.635,27.433c-0.009,2.687-1.859,3.084-4.133,3.057
		c-2.366-0.028-3.254-1.101-3.248-3.355c0.019-6.832,0.076-13.667-0.084-20.496c-0.146-6.221-2.588-9.948-6.82-10.999
		c-6.271-1.556-12.086,3.009-12.433,10.192c-0.32,6.651-0.076,13.329-0.199,19.993c-0.035,1.89,0.313,4.209-2.604,4.592
		c-3.194,0.419-4.98-0.377-4.932-4.171c0.129-10.162-0.109-20.328-0.036-30.492c0.016-2.087-1.184-4.916,2.131-5.886
		C1056.687,464.304,1057.403,467.185,1058.393,470.097z"/>
	<path fill-rule="evenodd" clip-rule="evenodd" fill="#FFFFFF" d="M950.062,486.109c0,5.326,0.025,10.653-0.016,15.979
		c-0.013,1.619,0.251,3.539-2.174,3.77c-1.826,0.174-3.755,0.478-4.389-2.035c-0.738-2.927-2.104-1.588-3.516-0.529
		c-5.221,3.916-10.93,5.073-16.844,1.99c-5.916-3.083-7.198-8.787-7.26-14.871c-0.067-6.658-0.036-13.317-0.006-19.976
		c0.012-2.484-0.349-5.163,3.536-5.227c3.787-0.063,3.762,2.396,3.759,5.018c-0.007,5.16-0.043,10.321,0.037,15.48
		c0.033,2.153,0.165,4.332,0.544,6.447c1.02,5.691,3.609,8.15,8.337,8.188c5.082,0.04,9.57-3.399,9.959-8.613
		c0.53-7.121,0.295-14.298,0.466-21.448c0.042-1.752-0.364-3.789,1.756-4.812c2.885-1.392,5.629,0.28,5.697,3.659
		c0.114,5.657,0.031,11.318,0.031,16.979C950.008,486.109,950.034,486.109,950.062,486.109z"/>
	<path fill-rule="evenodd" clip-rule="evenodd" fill="#FFFFFF" d="M743.892,470.104c1.799-1.317,3.07-2.389,4.471-3.252
		c9.546-5.892,21.215-0.937,22.355,10.091c0.887,8.575,0.294,17.303,0.364,25.963c0.02,2.431-1.4,3.026-3.554,3.075
		c-2.53,0.058-3.664-0.985-3.649-3.52c0.031-5.498,0.014-10.997-0.06-16.495c-0.028-2.159-0.071-4.348-0.436-6.466
		c-1.003-5.827-3.784-8.492-8.666-8.594c-4.94-0.103-9.432,3.268-10.107,8.574c-0.648,5.089-0.348,10.3-0.445,15.458
		c-0.051,2.665-0.077,5.331-0.081,7.997c-0.005,2.446-1.45,3.036-3.587,3.036c-2.14,0.001-3.556-0.598-3.583-3.041
		c-0.128-11.327-0.29-22.653-0.417-33.979c-0.022-2.026,0.556-3.464,3.006-3.756C742.951,464.784,742.963,467.478,743.892,470.104z"
		/>
	<path fill-rule="evenodd" clip-rule="evenodd" fill="#FFFFFF" d="M1281.505,485.307c0-5.159-0.019-10.318,0.01-15.478
		c0.01-1.82-0.186-3.948,2.19-4.443c1.994-0.416,4.035-0.444,4.535,2.428c0.364,2.091,1.567,1.69,2.851,0.678
		c0.912-0.721,1.848-1.438,2.859-2.001c9.779-5.458,20.997-0.019,21.901,11.101c0.672,8.274,0.188,16.641,0.26,24.966
		c0.023,2.6-1.275,3.419-3.731,3.433c-2.655,0.016-3.514-1.268-3.506-3.674c0.021-5.662,0.025-11.326-0.062-16.987
		c-0.033-2.154-0.182-4.329-0.543-6.449c-0.779-4.579-3.188-7.726-8.17-7.936c-4.918-0.207-8.189,2.293-10.015,6.763
		c-0.834,2.04-0.933,4.204-0.926,6.385c0.018,5.663-0.012,11.326-0.01,16.988c0.001,2.617,0.041,5-3.792,4.933
		c-3.567-0.063-3.489-2.313-3.496-4.716c-0.016-5.329-0.005-10.659-0.005-15.989
		C1281.739,485.307,1281.622,485.307,1281.505,485.307z"/>
	<path fill-rule="evenodd" clip-rule="evenodd" fill="#FFFFFF" d="M195.132,480.885c0-6.82-0.078-13.642,0.035-20.459
		c0.051-3.129-1.06-4.606-4.349-4.44c-3.151,0.159-6.318-0.008-9.479-0.019c-1.858-0.007-3.201-0.449-3.295-2.737
		c-0.092-2.242,0.718-3.632,3-3.641c11.974-0.051,23.948-0.05,35.922,0.001c2.288,0.01,3.083,1.413,2.99,3.649
		c-0.096,2.293-1.453,2.722-3.305,2.728c-2.994,0.01-6.001,0.218-8.979,0.003c-3.77-0.272-4.898,1.393-4.866,4.966
		c0.119,13.306,0.066,26.613-0.014,39.92c-0.011,1.833,0.734,4.357-2.069,4.93c-3.068,0.627-5.664,0.373-5.576-3.943
		c0.143-6.982,0.039-13.971,0.039-20.957C195.168,480.885,195.15,480.885,195.132,480.885z"/>
	<path fill-rule="evenodd" clip-rule="evenodd" fill="#FFFFFF" d="M2691.819,146.303c0.118,7.958-6.1,14.221-14.143,14.244
		c-7.898,0.023-13.91-5.796-14.132-13.68c-0.227-8.034,5.785-14.371,13.811-14.558
		C2685.259,132.125,2691.702,138.359,2691.819,146.303z"/>
	<path fill-rule="evenodd" clip-rule="evenodd" fill="#FFFFFF" d="M2917.331,347.565c2.964-4.281,6.447-5.778,11.291-5.743
		c28.473,0.203,56.947,0.098,85.422,0.106c1.496,0,2.997,0.038,4.488,0.159c1.674,0.136,2.171,1.303,2.196,2.788
		c0.023,1.414-0.217,2.804-1.819,3.135c-1.451,0.3-2.974,0.344-4.465,0.345c-30.639,0.019-61.277,0.02-91.916,0.005
		C2920.911,348.359,2919.229,348.611,2917.331,347.565z"/>
	<path fill-rule="evenodd" clip-rule="evenodd" fill="#FFFFFF" d="M1110.297,506.947c-6.735,0.074-10.781-3.201-11.32-9.746
		c-0.532-6.452-0.387-12.961-0.529-19.444c-0.069-3.136,0.511-6.579-4.307-6.83c-1.69-0.089-1.874-1.644-1.818-3.049
		c0.063-1.566,0.936-2.563,2.462-2.614c2.849-0.096,3.689-1.769,3.69-4.247c0-3.676,2.817-4.47,5.439-4.506
		c3.204-0.045,2.007,2.923,2.013,4.571c0.011,3.051,1.288,4.244,4.205,4.068c0.993-0.061,1.996,0.055,2.994,0.059
		c1.951,0.006,3.2,0.754,3.194,2.908c-0.006,2.054-1.045,2.794-3.068,3.042c-7.254,0.892-7.251,0.966-7.248,8.509
		c0.002,4.659-0.081,9.322,0.077,13.978c0.106,3.126,0.871,6.004,4.682,6.665c2.224,0.386,5.607-0.662,5.091,3.508
		C1115.403,507.448,1112.188,506.379,1110.297,506.947z"/>
	<path fill-rule="evenodd" clip-rule="evenodd" fill="#FFFFFF" d="M1347.918,464.453c1.524,0.27,3.99,0.614,6.409,1.163
		c1.881,0.427,2.844,1.509,2.124,3.652c-0.626,1.863-1.502,2.879-3.632,2.15c-0.93-0.318-1.952-0.396-2.94-0.513
		c-6.032-0.72-11.476,0.426-14.693,6.075c-3.376,5.926-3.527,12.226,0.365,17.959c3.688,5.433,9.208,6.608,15.475,5.295
		c1.96-0.411,4.66-2.359,5.434,1.638c0.767,3.959-2.427,3.785-4.654,4.279c-8.494,1.887-16.526,0.952-22.21-6.271
		c-5.756-7.314-6.051-15.737-2.198-24.035C1331.189,467.677,1338.381,464.746,1347.918,464.453z"/>
	<path fill-rule="evenodd" clip-rule="evenodd" fill="#FFFFFF" d="M901.618,506.954c-7.081,0.06-11.238-3.942-11.525-11.308
		c-0.253-6.488-0.139-12.994-0.078-19.49c0.025-2.736-0.172-5.051-3.746-5.117c-1.64-0.03-2.247-1.144-2.289-2.687
		c-0.047-1.742,0.559-3.052,2.445-3.075c3.294-0.039,3.695-2.097,3.611-4.682c-0.116-3.62,2.878-3.809,5.183-4.127
		c2.499-0.346,2.329,2.069,2.254,3.557c-0.221,4.372,2.096,5.414,5.888,5.192c1.558-0.092,3.666-0.492,4.307,1.575
		c1.058,3.417-0.858,4.648-3.95,4.324c-4.893-0.513-6.478,1.714-6.222,6.388c0.3,5.483,0.034,10.994,0.158,16.489
		c0.068,2.994,0.861,5.692,4.451,6.265c2.301,0.367,5.518-0.45,5.071,3.591C906.765,507.575,903.509,506.364,901.618,506.954z"/>
	<path fill-rule="evenodd" clip-rule="evenodd" fill="#FFFFFF" d="M282.207,506.957c-6.683-0.115-10.7-3.68-11.073-10.216
		c-0.389-6.813-0.267-13.658-0.287-20.49c-0.009-2.718-0.231-5.085-3.792-5.163c-1.996-0.044-2.401-1.459-2.394-3.106
		c0.009-1.844,1.005-2.771,2.795-2.782c2.637-0.017,3.463-1.547,3.377-3.882c-0.085-2.286,0.817-3.689,3.143-4.401
		c2.628-0.806,4.417-0.6,4.12,2.643c-0.403,4.409,1.487,6.054,5.798,5.664c2.096-0.189,4.65-0.347,4.755,2.898
		c0.108,3.368-2.511,3.163-4.584,2.975c-4.695-0.427-6.213,1.642-5.962,6.137c0.307,5.483-0.008,11.001,0.239,16.49
		c0.138,3.07,0.957,6.01,4.818,6.604c2.086,0.321,5.208-0.604,4.837,3.252C287.609,507.6,284.18,506.378,282.207,506.957z"/>
	<path fill-rule="evenodd" clip-rule="evenodd" fill="#FFFFFF" d="M696.524,471.026c2.841-3.094,5.021-5.708,8.577-6.208
		c1.951-0.274,4.221-0.79,4.611,2.188c0.303,2.303,0.01,4.03-2.96,4.731c-6.773,1.6-9.438,4.954-9.671,11.875
		c-0.207,6.143-0.133,12.296-0.07,18.444c0.026,2.616-0.768,3.957-3.684,3.971c-2.921,0.014-3.808-1.44-3.831-3.962
		c-0.103-10.965-0.203-21.93-0.294-32.896c-0.017-1.955,0.277-3.683,2.781-3.906c2.438-0.218,3.81,0.726,3.974,3.258
		C695.998,469.142,696.228,469.749,696.524,471.026z"/>
	<path fill-rule="evenodd" clip-rule="evenodd" fill="#FFFFFF" d="M1391.994,476.532c-0.001,8.148,0.007,16.298-0.005,24.447
		c-0.004,2.5,0.373,5.085-3.595,5.024c-4.089-0.063-3.36-2.883-3.366-5.234c-0.043-16.464-0.014-32.929-0.032-49.394
		c-0.002-2.429-0.123-4.744,3.358-4.816c3.78-0.077,3.666,2.403,3.654,5.025C1391.972,459.9,1391.995,468.217,1391.994,476.532z"/>
	<path fill-rule="evenodd" clip-rule="evenodd" fill="#FFFFFF" d="M228.967,470.738c3.303-3.086,5.551-5.687,9.104-6.008
		c1.869-0.169,3.84-0.26,3.98,2.424c0.105,2.006,0.231,3.742-2.555,4.524c-7.439,2.088-9.556,4.912-9.853,12.753
		c-0.214,5.638-0.106,11.288-0.113,16.933c-0.003,2.808-0.573,4.769-4.153,4.668c-3.617-0.102-3.365-2.413-3.369-4.762
		c-0.018-10.128-0.063-20.256,0.006-30.383c0.015-2.106-1.156-4.92,2.395-5.588C227.833,464.655,228.663,466.971,228.967,470.738z"
		/>
	<path fill-rule="evenodd" clip-rule="evenodd" fill="#FFFFFF" d="M717.024,485.55c-0.008-5.486,0.058-10.975-0.035-16.459
		c-0.047-2.732,1.047-3.928,3.819-3.905c2.692,0.021,4.01,1.136,4.004,3.86c-0.023,11.139-0.043,22.277-0.008,33.417
		c0.009,2.948-1.63,3.555-4.171,3.545c-2.485-0.01-3.66-0.916-3.626-3.5C717.083,496.855,717.031,491.202,717.024,485.55z"/>
	<path fill-rule="evenodd" clip-rule="evenodd" fill="#FFFFFF" d="M547.519,485.384c0.001,5.491-0.011,10.982,0.006,16.473
		c0.009,2.796-1.011,4.254-4.145,4.177c-3.063-0.076-3.534-1.764-3.529-4.195c0.02-10.815,0.024-21.632-0.006-32.447
		c-0.007-2.484,0.604-4.127,3.574-4.219c3.128-0.097,4.124,1.44,4.108,4.238C547.496,474.734,547.518,480.06,547.519,485.384z"/>
	<path fill-rule="evenodd" clip-rule="evenodd" fill="#FFFFFF" d="M1372.988,486.009c0.002,5.316-0.047,10.633,0.022,15.947
		c0.033,2.527-0.576,4.06-3.577,4.074c-2.83,0.015-3.934-1.238-3.934-3.848c0.001-11.129,0.011-22.258,0.016-33.387
		c0.001-2.815,1.541-3.683,4.168-3.604c2.687,0.08,3.339,1.546,3.319,3.874C1372.953,474.713,1372.986,480.361,1372.988,486.009z"/>
	<path fill-rule="evenodd" clip-rule="evenodd" fill="#FFFFFF" d="M257.138,485.641c-0.001,5.314-0.033,10.629,0.013,15.942
		c0.021,2.623-0.428,4.481-3.777,4.426c-3.083-0.051-3.516-1.765-3.512-4.18c0.018-10.795,0.021-21.589-0.004-32.384
		c-0.006-2.44,0.505-4.18,3.519-4.235c3.306-0.061,3.803,1.852,3.778,4.487C257.105,475.011,257.14,480.326,257.138,485.641z"/>
	<path fill-rule="evenodd" clip-rule="evenodd" fill="#FFFFFF" d="M3263.152,407.279c0.039,4.644-3.142,7.796-7.842,7.771
		c-4.353-0.023-7.602-3.182-7.702-7.488c-0.106-4.561,3.117-7.937,7.699-8.063C3259.91,399.372,3263.112,402.548,3263.152,407.279z"
		/>
	<path fill-rule="evenodd" clip-rule="evenodd" fill="#FFFFFF" d="M2970.261,407.531c-0.094,4.679-3.291,7.675-8.012,7.509
		c-4.332-0.153-7.401-3.364-7.397-7.739c0.004-4.52,3.346-7.813,7.908-7.794C2967.354,399.525,2970.356,402.738,2970.261,407.531z"
		/>
	<path fill-rule="evenodd" clip-rule="evenodd" fill="#FFFFFF" d="M253.66,449.478c2.679,0.411,4.295,1.795,4.25,4.588
		c-0.049,3.039-1.844,4.635-4.719,4.499c-2.934-0.138-4.439-2.046-4.201-5.002C249.216,450.757,251.116,449.675,253.66,449.478z"/>
	<path fill-rule="evenodd" clip-rule="evenodd" fill="#FFFFFF" d="M1373.751,453.96c-0.236,3.016-1.826,4.604-4.468,4.634
		c-2.924,0.032-4.646-1.702-4.58-4.686c0.068-3.052,1.996-4.504,4.883-4.347C1372.34,449.712,1373.564,451.579,1373.751,453.96z"/>
	<path fill-rule="evenodd" clip-rule="evenodd" fill="#FFFFFF" d="M543.523,458.68c-2.623-0.384-4.378-1.694-4.403-4.471
		c-0.026-2.983,1.693-4.674,4.605-4.665c2.676,0.009,4.276,1.539,4.336,4.359C548.126,456.995,546.324,458.318,543.523,458.68z"/>
	<path fill-rule="evenodd" clip-rule="evenodd" fill="#FFFFFF" d="M725.351,454.219c-0.158,2.782-1.782,4.344-4.407,4.366
		c-2.892,0.024-4.688-1.714-4.593-4.672c0.097-2.974,1.993-4.503,4.909-4.327C724.004,449.752,725.319,451.495,725.351,454.219z"/>
	<path fill-rule="evenodd" clip-rule="evenodd" fill="#FFFFFF" d="M2636.084,171.562c-7.313-31.094-27.153-49.04-58.476-54.667
		c-17.51-3.145-35.173-2.566-52.819-2.607c-12.493-0.005-24.986-0.009-37.48,0c-1.498,0.001-2.999,0.026-4.493,0.123
		c-1.698,0.109-2.804,0.849-2.825,2.77c-0.022,1.889,0.917,2.688,2.709,2.821c1.992,0.148,3.99,0.304,5.961,0.612
		c9.031,1.415,12.861,5.073,14.498,13.974c0.449,2.445,0.756,4.957,0.758,7.438c0.044,43.312,0.112,86.624-0.015,129.935
		c-0.044,15.146-4.519,19.847-19.423,21.647c-1.883,0.228-4.373-0.165-4.391,2.825c-0.021,3.364,2.699,2.892,4.723,2.898
		c20.656,0.065,41.313,0.063,61.969,0.054c7.666-0.004,15.306-0.401,22.93-1.323c36.742-4.442,59.248-23.7,66.869-58.099
		C2641.622,217.205,2641.424,194.269,2636.084,171.562z M2605.74,251.424c-7.63,23.769-26.039,34.298-49.95,36.468
		c-5.127,0.465-10.287,0.805-15.456,0.287c-6.759-0.678-9.384-2.948-10.723-9.699c-1.076-5.428-0.785-10.752-0.814-16.233
		c-0.1-18.482-0.038-37.247-0.038-55.247c0.065,0,0.131,0,0.196,0c0-22-0.084-43.161,0.029-64.639
		c0.075-14.339,3.729-17.755,18.115-16.942c6.979,0.395,13.941,0.867,20.789,2.501c19.051,4.546,32.368,15.843,38.068,34.521
		C2614.977,191.997,2615.199,221.962,2605.74,251.424z"/>
	<path fill-rule="evenodd" clip-rule="evenodd" fill="#FFFFFF" d="M2921.47,168.456c-2.433-4.521-6.74-5.703-11.51-5.435
		c-6.272,0.353-10.929,3.637-14.659,8.467c-3.295,4.265-5.571,9.082-7.549,14.045c-0.945,2.372-1.978,3.428-4.813,2.156
		c-14.771-6.628-29.926-5.521-45.009-1.399c-7.948,2.172-14.875,6.563-18.682,14.075c-7.862,15.513-8.465,31.959,1.482,46.059
		c5.463,7.744,5.258,11.816,0.5,18.989c-6.115,9.219-4.635,19.129,2.623,25.461c3.653,3.188,2.425,4.267-0.852,6.186
		c-6.049,3.542-10.797,8.349-12.836,15.334c-3.701,12.681,1.527,24.602,13.978,31.521c10.812,6.009,22.675,7.441,34.378,7.697
		c13.552-0.277,26.309-2.292,38.043-8.642c11.227-6.074,19.207-14.771,21.886-27.648c3.839-18.458-4.637-31.194-23.106-34.64
		c-7.425-1.386-14.943-0.971-22.436-1.104c-10.656-0.191-21.353,0.761-31.963-0.659c-9.526-1.274-12.846-7.838-8.596-16.21
		c1.314-2.591,2.822-3.703,5.922-2.734c9.23,2.886,18.762,2.96,28.237,1.879c15.087-1.722,28.123-7.275,33.455-22.867
		c5.073-14.835,3.751-29.396-5.905-42.275c-3.489-4.654-0.936-7.798,1.344-11.146c2.276-3.344,5.467-3.263,8.84-1.43
		c1.301,0.707,2.742,1.336,4.188,1.561c4.811,0.75,9.529,0.465,12.598-3.958C2923.94,177.538,2923.848,172.873,2921.47,168.456z
		 M2843.777,297.088c5.712,0.827,12.223,0.144,17.223,0.144c0,0.007,0,0.013,0,0.019c7,0,13.924-0.249,20.74,0.064
		c8.208,0.376,16.329,1.788,19.943,10.662c3.025,7.426,0.062,16.766-7.113,23.419c-13.063,12.113-39.245,15.56-54.928,7.105
		c-8.131-4.383-13.147-11.034-14.403-20.418C2823.986,308.718,2832.399,295.44,2843.777,297.088z M2881.081,234.668
		c-1.974,12.102-8.665,18.495-20.013,19.285c-11.96,0.833-20.197-4.651-23.83-16.18c-3.066-9.731-3.383-19.698-1.219-29.626
		c2.167-9.938,8.096-15.162,17.726-16.31c11.106-1.324,19.3,2.627,23.905,11.526c2.686,5.19,4.31,13.196,4.536,21.391
		C2881.826,228.061,2881.615,231.391,2881.081,234.668z"/>
	<path fill-rule="evenodd" clip-rule="evenodd" fill="#FFFFFF" d="M2320.964,297.097c-0.3-3.373-2.877-2.014-4.604-1.965
		c-9.503,0.27-12.324-2.126-12.471-11.735c-0.164-10.824-0.037-21.396-0.037-32.396c-0.018,0-0.033,0-0.05,0
		c0-11,0.192-21.742-0.04-32.564c-0.477-22.216-9.6-32.167-31.633-34.807c-0.496-0.06-0.991-0.16-1.489-0.197
		c-12.909-0.958-25.295,0.864-36.65,7.391c-5.802,3.335-10.515,7.758-11.188,14.988c-0.667,7.158,3.3,12.002,10.281,12.766
		c6.658,0.729,12.058-3.582,12.927-10.359c0.316-2.473,0.424-4.979,0.84-7.433c0.531-3.127,2.267-5.473,5.076-7.038
		c12.627-7.029,27.857-0.39,31.018,13.629c1.772,7.867,1.253,15.902,1.491,23.885c0.117,3.904-1.677,5.305-5.298,5.506
		c-4.652,0.259-9.307,0.656-13.932,1.222c-11.979,1.465-23.776,3.674-33.832,10.982c-10.459,7.603-14.79,21.007-11.003,33.338
		c3.509,11.423,13.777,19.036,26.83,19.567c13.165,0.535,24.622-3.38,33.505-13.576c0.799-0.917,1.371-2.688,2.977-2.064
		c1.146,0.445,0.926,2.017,1.199,3.126c1.864,7.565,5.607,11.082,13.264,12.21c6.342,0.935,12.637,0.169,18.884-0.942
		C2318.963,300.286,2321.215,299.922,2320.964,297.097z M2279.598,277.687c-4.199,7.299-10.092,12.309-18.759,13.418
		c-5.999,0.769-10.786-1.387-14.508-6.02c-8.574-10.673-6.105-25.851,5.568-32.958c8.78-5.346,18.646-6.855,28.748-7.223
		c2.57-0.094,3.647,1.2,3.665,3.608c0.02,2.498,0.005,4.996,0.005,7.494C2284.552,263.62,2283.456,270.98,2279.598,277.687z"/>
	<path fill-rule="evenodd" clip-rule="evenodd" fill="#FFFFFF" d="M3020.811,223.699c-5.121-23.934-21.899-38.778-45.697-40.447
		c-24.494-1.717-43.817,10.057-51.512,32.58c-6.748,19.752-6.596,39.799,2.323,58.951c9.026,19.383,25.448,27.463,46.194,27.1
		c20.628-0.36,36.059-9.416,44.799-28.632c4.436-9.752,5.611-20.141,5.895-30.901
		C3022.605,236.216,3022.141,229.911,3020.811,223.699z M2994.231,277.336c-5.632,12.298-15.815,17.956-28.101,15.691
		c-9.257-1.706-14.788-7.858-18.474-15.973c-5.587-12.301-6.423-25.41-6.081-38.646c0.282-10.893,1.731-21.612,6.61-31.542
		c7.898-16.072,26.78-20.41,39.095-9.023c4.132,3.82,6.801,8.635,8.548,13.907c1.253,3.782,2.261,7.665,3.081,11.565
		c1.344,6.382,1.581,12.88,1.494,19.389C3000.525,254.638,2999.268,266.341,2994.231,277.336z"/>
	<path fill-rule="evenodd" clip-rule="evenodd" fill="#FFFFFF" d="M2733.193,229.878c9.984,0.262,19.807,0.081,29.807,0.081
		c0-0.007,0-0.014,0-0.021c11,0,21.146-0.032,31.638,0.021c2.795,0.014,5.019-0.369,5.038-3.923
		c0.098-18.632-7.279-35.277-28.573-41.064c-6.007-1.632-12.109-2.048-18.3-1.75c-25.234,1.217-39.729,13.41-44.287,37.846
		c-2.656,14.231-2.373,28.516,1.495,42.574c3.85,13.988,11.568,25.221,24.871,31.552c18.618,8.859,38.035,8.352,57.624,3.575
		c3.741-0.912,4.211-3.596,3.449-6.527c-0.94-3.622-3.609-1.237-5.313-0.87c-20.754,4.477-39.565-2.582-50.794-19.451
		c-7.271-10.925-10.707-23.195-11.98-36.156C2727.445,231.484,2728.655,229.759,2733.193,229.878z M2728.028,218.351
		c-0.503-15.308,16.669-29.492,31.797-26.159c10.387,2.288,19.437,16.359,17.311,26.744c-0.582,2.843-2.716,2.595-4.622,2.619
		c-6.664,0.086-13.33,0.034-19.994,0.028c-6.832-0.005-13.664,0.027-20.495-0.025
		C2729.943,221.542,2728.125,221.277,2728.028,218.351z"/>
	<path fill-rule="evenodd" clip-rule="evenodd" fill="#FFFFFF" d="M3413.979,427.033c-5.317-1.862-9.106,0.327-10.011,5.906
		c-0.096,0.592-0.386,1.153-0.64,1.884c-0.688-0.375-1.176-0.52-1.497-0.835c-13.396-13.151-33.02-11.424-44.017,3.943
		c-6.59,9.209-8.03,19.687-6.464,30.519c1.763,12.19,7.78,21.734,19.973,25.811c11.485,3.841,21.663,1.09,30.729-8.733
		c0.677,4.739,0.498,8.514-0.036,12.267c-1.58,11.084-8.616,17.462-19.849,18.064c-6.092,0.326-11.924-0.822-17.559-3.114
		c-2.18-0.886-4.621-2.94-5.838,1.208c-0.95,3.24-3.248,6.495,2.021,8.483c8.456,3.191,17.116,4.371,26.005,3.126
		c16.249-2.276,25.08-10.807,27.354-27.09c3.17-22.691,0.432-45.579,1.688-68.349
		C3415.914,428.742,3415.617,427.606,3413.979,427.033z M3402.02,469.815c-0.973,7.811-6.635,14.024-14.08,15.704
		c-7.805,1.762-15.602-1.423-19.957-8.15c-5.915-9.139-5.658-24.758,0.557-33.76c4.623-6.695,12.534-9.783,20.073-7.833
		c7.727,1.998,12.814,8.151,13.598,16.589c0.245,2.646,0.254,5.315,0.379,8.15C3402.417,463.508,3402.408,466.686,3402.02,469.815z"
		/>
	<path fill-rule="evenodd" clip-rule="evenodd" fill="#FFFFFF" d="M2937.252,427.135c-4.598-2.11-9.187,0.291-9.969,5.309
		c-0.119,0.767,0.031,1.693-1.076,2.099c-0.357-0.219-0.826-0.406-1.166-0.729c-14.347-13.577-35.342-10.709-45.363,6.396
		c-6.121,10.446-7.189,21.748-3.953,33.303c4.564,16.299,19.141,25.117,34.835,21.535c5.747-1.313,10.194-4.647,15.151-9.765
		c0.271,5.153,0.367,8.92-0.307,12.694c-2.035,11.408-9.065,17.526-20.569,17.908c-6.099,0.203-11.911-1.022-17.505-3.4
		c-1.981-0.843-4.217-2.234-5.063,1.184c-0.708,2.863-3.98,6.152,1.097,8.373c4.472,1.956,9.148,3.1,13.955,3.676
		c24.076,2.883,39.456-8.657,40.597-31.326c1.07-21.276-0.295-42.617,0.816-63.914
		C2938.8,429.177,2938.864,427.876,2937.252,427.135z M2925.18,471.393c-1.914,7.765-7.945,13.436-15.458,14.414
		c-7.884,1.027-15.266-2.351-18.911-9.389c-5.535-10.685-5.289-21.582,0.636-32.021c4.215-7.425,12.712-10.662,20.6-8.582
		c7.903,2.084,13.366,9.069,13.722,17.639c0.097,2.327,0.015,4.663,0.015,8.108C2925.686,464.101,2926.072,467.77,2925.18,471.393z"
		/>
	<path fill-rule="evenodd" clip-rule="evenodd" fill="#FFFFFF" d="M2074.136,441.506c-8.431-18.477-32.177-22.17-46.292-7.569
		c-0.631,0.651-0.844,1.859-2.844,1.28c0-1.639,0-3.43,0-5.221c0-10.321-0.161-20.646,0.069-30.961
		c0.101-4.474-2.404-4.879-5.698-4.686c-3.106,0.183-7.055-1.139-7.063,4.365c-0.039,31.127-0.145,62.255-0.274,93.382
		c-0.012,2.748,1.155,3.774,3.858,3.943c6.103,0.383,6.794-0.121,7.297-6.236c0.09-1.093-0.323-2.381,1.154-3.392
		c1.779,1.845,3.424,3.915,5.42,5.562c13.469,11.115,35.316,5.862,43.688-10.875
		C2079.914,468.181,2080.125,454.631,2074.136,441.506z M2062.258,475.781c-4.01,8.941-12.275,12.964-21.741,11.159
		c-8.607-1.641-14.889-9.136-15.437-18.518c-0.126-2.158-0.019-4.331-0.019-6.497c-0.077-3.999-0.195-7.997,0.984-11.9
		c2.488-8.236,9.468-14.03,17.765-14.684c7.908-0.623,15.475,4.079,18.826,12.25
		C2066.482,456.965,2066.403,466.535,2062.258,475.781z"/>
	<path fill-rule="evenodd" clip-rule="evenodd" fill="#FFFFFF" d="M2637.539,429.471c-1.578-0.906-3.272-1.662-4.989-2.27
		c-24.347-8.617-46.546,7.819-46.661,34.521c-0.067,15.557,7.226,27.937,19.57,33.222c16.617,7.114,36.488,0.233,44.23-15.318
		C2658.646,461.64,2653.026,438.368,2637.539,429.471z M2637.492,475.71c-3.375,7.328-9.079,12.056-17.422,12.196
		c-8.563,0.145-14.381-4.558-18.08-11.982c-2.264-4.541-3.164-9.446-3.063-14.527c-0.032-5.761,1.036-11.285,3.91-16.324
		c3.867-6.779,9.698-10.398,17.603-10.226c7.779,0.171,13.232,4.152,16.57,10.956C2641.838,455.646,2642.08,465.744,2637.492,475.71
		z"/>
	<path fill-rule="evenodd" clip-rule="evenodd" fill="#FFFFFF" d="M1980.404,427.831c-16.551-6.91-35.549-0.694-43.778,14.324
		c-9.088,16.582-4.749,40.084,9.491,49.655c11.366,7.64,23.603,7.86,35.618,1.907c13.303-6.59,17.773-18.597,18.152-29.843
		C1999.915,445.342,1992.649,432.943,1980.404,427.831z M1982.646,477.518c-3.553,6.629-9.318,10.506-17.006,10.402
		c-7.663-0.104-13.187-4.133-16.836-10.738c-2.713-4.911-3.947-10.22-3.828-14.675c0.027-7.46,1.353-13.433,4.807-18.749
		c8.039-12.372,25.444-12.063,32.623,0.796C1988.428,455.343,1988.507,466.58,1982.646,477.518z"/>
	<path fill-rule="evenodd" clip-rule="evenodd" fill="#FFFFFF" d="M2501.759,427.894c-16.305-6.896-35.571-0.828-43.565,13.721
		c-9.519,17.322-5.251,40.739,9.502,50.409c11.451,7.506,23.699,7.613,35.638,1.514c12.979-6.632,17.538-18.423,17.755-28.71
		C2521.184,445.394,2514.035,433.086,2501.759,427.894z M2500.875,481.681c-7.867,8.486-20.029,8.399-27.753-0.16
		c-9.135-10.124-9.231-30.09-0.196-40.3c8.048-9.093,22.229-8.442,29.545,1.355c3.463,4.637,5.595,11.859,5.563,19.853
		C2507.773,468.934,2506.167,475.973,2500.875,481.681z"/>
	<path fill-rule="evenodd" clip-rule="evenodd" fill="#FFFFFF" d="M2419.522,425.984c-23.458-5.104-42.403,10.765-42.483,35.58
		c-0.063,19.146,10.813,33.183,27.577,35.596c22.484,3.235,39.558-11.493,40.293-34.761
		C2445.501,443.654,2435.625,429.487,2419.522,425.984z M2427.414,477.893c-7.607,13.295-24.512,13.479-32.813,0.625
		c-3.468-5.369-4.62-11.345-4.603-17.624c0.125-6.109,1.417-11.898,4.758-17.104c7.796-12.146,25.121-12.151,32.395,0.309
		C2433.592,455.132,2433.801,466.73,2427.414,477.893z"/>
	<path fill-rule="evenodd" clip-rule="evenodd" fill="#FFFFFF" d="M3111.547,432.749c-13.068-13.434-37.867-8.805-47.218,8.717
		c-3.692,6.919-5.329,14.403-5.031,22.168c0.44,11.485,3.872,21.873,14.133,28.308c12.936,8.11,26.768,6.46,40.511,2.265
		c3.969-1.211,1.692-4.363,1.349-6.767c-0.4-2.799-2.165-2.909-4.411-2.135c-4.615,1.591-9.436,2.063-14.264,2.265
		c-12.779,0.534-22.01-6.22-24.305-17.644c-1.016-5.053-0.578-6.02,4.452-6.084c6.161-0.079,12.237-0.019,18.237-0.019
		c0-0.014,0-0.026,0-0.039c7,0,13.907-0.047,20.734,0.022c2.753,0.028,4.691-0.861,4.761-3.875
		C3120.73,449.786,3118.881,440.286,3111.547,432.749z M3104.249,454.321c-4.833-0.01-9.665-0.003-14.498,0.001
		c-4.666,0.003-9.333,0.044-13.998-0.017c-1.913-0.025-3.826-0.225-3.265-3.051c2.435-12.246,13.313-20.228,25.105-15.689
		c6.672,2.568,9.286,8.2,10.338,14.801C3108.387,453.22,3106.913,454.327,3104.249,454.321z"/>
	<path fill-rule="evenodd" clip-rule="evenodd" fill="#FFFFFF" d="M3146.23,463.805c6.66,0.107,13.77,0.031,19.77,0.031
		c0-0.014,0-0.027,0-0.041c7,0,13.211-0.132,19.701,0.049c3.91,0.109,5.512-1.489,5.334-5.327c-0.154-3.33-0.148-6.641-0.855-9.925
		c-4.342-20.162-23.357-29.392-41.92-20.284c-3.791,1.86-7,4.459-9.689,7.717c-9.811,11.888-11.528,32.906-3.786,46.221
		c8.403,14.45,35.224,20.736,50.196,11.836c3.564-2.119,1.025-4.722,0.713-7.053c-0.349-2.606-2.324-2.348-4.23-1.697
		c-4.626,1.576-9.445,2.029-14.27,2.237c-13.287,0.573-23.198-7.177-24.718-19.119C3142.068,465.248,3142.82,463.75,3146.23,463.805
		z M3143.04,451.254c2.148-10.263,10.646-18.925,22.148-16.551c7.51,1.551,13.146,8.362,13.451,15.938
		c0.105,2.626-0.912,3.663-3.336,3.669c-4.814,0.013-9.304,0.004-14.304,0.004c0,0.011,0,0.021,0,0.03
		c-5,0-9.771,0.014-14.586-0.006C3144.396,454.329,3142.477,453.945,3143.04,451.254z"/>
	<path fill-rule="evenodd" clip-rule="evenodd" fill="#FFFFFF" d="M1859.928,491.285c-0.082-6.816-0.028-14.285-0.028-20.285
		c-0.302,0-0.603,0-0.904,0c0-8,0.426-15.824-0.117-23.602c-0.571-8.179-3.94-15.427-11.782-19.111
		c-11.555-5.43-23.033-3.574-34.221,1.49c-3.765,1.703-1.619,4.396-0.896,6.793c0.869,2.885,2.749,2.229,4.725,1.311
		c5.562-2.583,11.41-3.583,17.503-2.954c6.339,0.653,10.366,4.207,11.894,10.358c1.364,5.493,0.647,6.404-4.869,6.704
		c-9.387,0.509-18.581,1.852-26.607,7.296c-7.773,5.273-11.148,14.513-8.76,23.676c2.197,8.434,8.518,13.622,18.165,14.521
		c7.428,0.691,14.285-1.135,19.919-6.173c2.811-2.512,4.077-2.83,4.728,1.458c0.802,5.292,5.136,2.945,8.044,3.207
		C1860.229,496.29,1859.957,493.736,1859.928,491.285z M1847.063,468.505c-0.026,11.887-6.345,19.217-16.472,19.511
		c-5.938,0.172-10.152-2.369-11.878-7.161c-1.865-5.179-0.465-11.219,3.797-14.483c6.426-4.922,14.071-6.025,21.774-5.258
		C1849.134,461.598,1846.109,466.269,1847.063,468.505z"/>
	<path fill-rule="evenodd" clip-rule="evenodd" fill="#FFFFFF" d="M528.614,468.505c0.045-1.474-0.356-2.688-1.911-3.082
		c-1.302-0.329-3.422-0.628-3.761,0.356c-1.872,5.439-4.098,1.489-6.295,0.497c-1.352-0.611-2.775-1.169-4.225-1.44
		c-10.179-1.902-19.01,4.698-21.163,15.738c-2.369,12.146,3.404,22.854,13.499,24.902c4.426,0.898,8.617,0.171,12.433-2.336
		c0.945-0.621,1.844-1.313,3.269-2.334c1.443,11.503-4.181,17.478-14.773,16.35c-2.29-0.244-4.572-0.888-6.763-1.628
		c-1.667-0.563-2.938-0.724-3.584,1.219c-0.526,1.585-1.055,3.036,0.845,4.372c11.455,8.06,30.215-0.146,31.755-14.156
		C529.343,494.185,528.228,481.323,528.614,468.505z M510.007,499.938c-7.284-0.094-11.912-6.517-11.384-15.798
		c0.435-7.613,4.353-12.737,10.271-13.429c7.681-0.897,12.11,4.372,12.104,14.396C520.99,494.649,517.004,500.029,510.007,499.938z"
		/>
	<path fill-rule="evenodd" clip-rule="evenodd" fill="#FFFFFF" d="M817.91,468.549c0.052-1.385-0.096-2.795-1.785-3.113
		c-1.623-0.306-3.883-0.779-4.456,1.049c-1.021,3.255-2.052,2.24-4.039,0.895c-7.245-4.907-16.933-3.396-22.496,3.284
		c-6.13,7.362-6.831,19.608-1.582,27.641c4.893,7.485,14.772,9.749,22.435,5.163c1.108-0.663,1.936-1.881,3.427-1.835
		c2.07,8.729-2.312,15.05-10.893,15.658c-3.537,0.251-6.972-0.337-10.254-1.7c-1.531-0.636-2.837-0.943-3.583,1.117
		c-0.691,1.908-0.844,3.346,1.282,4.618c12.318,7.372,29.425-0.312,31.212-14.367C818.799,494.21,817.432,481.351,817.91,468.549z
		 M810.155,486.984c-0.123,7.791-3.961,12.646-10.229,12.956c-6.571,0.326-11.508-4.854-12.019-12.661
		c-0.219-3.359,0.065-6.655,1.512-9.771c2.446-5.271,7.168-7.774,12.597-6.647c4.765,0.989,7.814,4.978,8.105,10.629
		c0.06,1.163,0.009,2.511,0.009,3.511c0.009,0,0.018,0,0.026,0C810.156,486,810.166,486.318,810.155,486.984z"/>
	<path fill-rule="evenodd" clip-rule="evenodd" fill="#FFFFFF" d="M997.107,501.118c0.108-8.309,0.05-16.118,0.05-25.118
		c-0.053,0-0.106,0-0.159,0c0-8-0.003-16.101,0.001-24.245c0.002-2.685,0.402-5.44-3.773-5.321
		c-4.077,0.117-3.717,3.055-3.752,5.709c-0.051,3.822-0.063,7.67-0.021,11.492c0.038,3.316-0.402,5.597-4.319,2.744
		c-1.633-1.188-3.652-1.541-5.656-1.762c-8.087-0.89-15.047,3.214-18.372,10.832c-4.077,9.341-2.071,21.684,4.449,27.373
		c6.09,5.313,13.669,5.431,21.562,0.336c1.149-0.742,2.573-2.539,3.233,0.251c0.737,3.113,2.973,2.704,5.055,2.316
		C998.104,505.222,997.086,502.725,997.107,501.118z M989.44,487.21c-0.163,8.144-4.442,13.427-11.005,13.419
		c-6.392-0.008-11.114-5.34-11.539-13.14c-0.191-3.518,0.071-6.945,1.625-10.19c2.43-5.076,6.857-7.436,12.166-6.509
		c4.872,0.852,8.129,4.417,8.641,9.942c0.138,1.48,0.021,3.268,0.021,4.268c0.031,0,0.063,0,0.094,0
		C989.442,486,989.454,486.546,989.44,487.21z"/>
	<path fill-rule="evenodd" clip-rule="evenodd" fill="#FFFFFF" d="M313.206,464.513c-11.96,0.147-19.809,8.761-19.711,21.631
		c0.095,12.45,7.864,20.788,19.399,20.816c12.114,0.03,20.301-8.778,20.228-21.766C333.051,472.516,325.201,464.364,313.206,464.513
		z M313.039,501.039c-6.918-0.111-12.196-6.983-11.92-15.727c0.063-1.97,0.455-3.979,1.023-5.871c1.739-5.8,5.82-9.118,11.046-9.21
		c5.178-0.091,9.284,3.174,11.094,9.065c0.627,2.044,0.828,4.219,1.027,5.281C325.299,494.577,320.051,501.152,313.039,501.039z"/>
	<path fill-rule="evenodd" clip-rule="evenodd" fill="#FFFFFF" d="M1206.916,464.501c-11.984,0.04-19.961,8.564-20.005,21.377
		c-0.042,12.319,7.755,20.89,19.179,21.081c11.992,0.2,20.562-8.759,20.568-21.504
		C1226.664,472.804,1218.805,464.461,1206.916,464.501z M1217.709,492.097c-1.778,5.444-5.987,8.839-10.789,8.942
		c-5.075,0.109-9.402-3.237-11.266-8.955c-1.545-4.74-1.433-9.521,0.47-14.155c2.089-5.089,6.267-7.978,11.123-7.683
		c5.283,0.322,8.469,3.452,10.261,8.178c0.887,2.34,1.401,4.786,1.571,7.377C1218.635,487.903,1218.373,490.065,1217.709,492.097z"
		/>
	<path fill-rule="evenodd" clip-rule="evenodd" fill="#FFFFFF" d="M1027.727,464.645c-8.9-1.061-16.181,3.146-19.632,11.341
		c-4.021,9.549-1.865,21.189,4.948,26.73c5.65,4.596,19.55,5.793,24.832,2.267c1.688-1.127,1.346-2.498,0.99-3.945
		c-0.445-1.807-1.744-1.635-3.163-1.282c-3.242,0.804-6.512,1.444-9.886,1.097c-6.023-0.619-10.617-4.287-11.707-9.304
		c-0.603-2.776-0.033-4.607,3.345-4.53c3.498,0.081,6.545,0.019,10.545,0.019c0-0.023,0-0.047,0-0.071c3,0,6.953,0.009,10.452-0.003
		c1.778-0.006,3.088-0.316,3.528-2.559C1043.711,475.573,1036.668,465.709,1027.727,464.645z M1030.118,481.534
		c-1.979-0.091-4.118-0.016-6.118-0.016c0,0.008,0,0.016,0,0.024c-1,0-2.481,0.08-3.795-0.019c-2.067-0.155-4.846,0.816-5.79-1.419
		c-1.026-2.435,0.973-4.728,2.594-6.593c4.973-5.72,14.02-4.239,16.582,2.647C1034.803,479.419,1034.451,481.731,1030.118,481.534z"
		/>
	<path fill-rule="evenodd" clip-rule="evenodd" fill="#FFFFFF" d="M626.444,464.993c-10.449-2.454-19.518,3.068-22.563,13.74
		c-3.468,12.155,1.39,23.742,11.399,27.002c6.072,1.979,12.14,1.468,18.158-0.377c1.851-0.567,2.808-1.655,2.32-3.712
		c-0.531-2.246-1.956-2.199-3.817-1.803c-2.43,0.518-4.915,0.984-7.387,1.052c-7.029,0.192-12.098-3.402-13.74-9.245
		c-0.883-3.141-0.361-4.808,3.277-4.661c3.321,0.134,6.908,0.028,9.908,0.028c0-0.016,0-0.031,0-0.047c4,0,7.388-0.009,11.047,0.003
		c1.834,0.007,3.159-0.485,3.637-2.583C640.378,476.971,634.021,466.772,626.444,464.993z M626.443,481.507
		c-1.827,0.082-3.443,0.014-5.443,0.014c0,0.006,0,0.012,0,0.018c-2,0-3.383,0.064-5.044-0.018c-1.614-0.08-3.718,0.557-4.652-1.076
		c-1.138-1.992,0.361-3.846,1.401-5.485c2.229-3.514,5.452-5.285,9.693-4.891c3.629,0.338,6.215,2.19,7.719,5.523
		C632.037,479.848,631.182,481.294,626.443,481.507z"/>
	<path fill-rule="evenodd" clip-rule="evenodd" fill="#FFFFFF" d="M665.729,464.563c-11.656-1.027-20.359,7.186-20.857,19.683
		c-0.572,14.402,6.878,22.756,21.101,22.729c2.846-0.131,6.466-0.548,9.942-1.845c1.767-0.659,2.124-1.872,1.667-3.573
		c-0.495-1.844-1.54-2.279-3.353-1.792c-3.058,0.822-6.178,1.364-9.375,1.13c-6.14-0.452-10.327-3.628-12.069-8.834
		c-1.224-3.656-0.351-5.22,3.733-5.104c6.65,0.189,13.312,0.028,19.968,0.027c1.933-0.001,3.469-0.166,3.952-2.684
		C682.185,475.188,674.967,465.378,665.729,464.563z M669.11,481.506c-2.317,0.016-4.11,0.003-7.11,0.003c0,0.019,0,0.037,0,0.056
		c-1,0-2.173,0.109-3.316-0.024c-2.034-0.237-4.832,0.987-5.759-1.382c-0.959-2.45,1.013-4.729,2.628-6.628
		c2.59-3.044,6.022-4.05,9.874-3.298c3.57,0.697,5.633,3.067,6.873,6.42C673.446,479.754,672.615,481.481,669.11,481.506z"/>
</g>
</svg>
